<svg xmlns="http://www.w3.org/2000/svg" width="259" height="253" viewBox="0 0 259 253">
    <g fill="none" fill-rule="evenodd">
        <g>
            <g transform="translate(-59 -223) translate(62 223)">
                <path fill="#00C1D4" fill-opacity=".1" fill-rule="nonzero" d="M228.078 39.965c13.972 16.524 19.61 38.675 19.8 61.009.245 22.27-4.964 44.845-18.936 74.804-13.972 29.96-36.828 67.32-67.223 74.805-30.395 7.484-68.4-14.886-97.25-44.845-28.933-29.96-48.787-67.482-41.789-98.169 6.912-30.686 40.554-54.471 69.48-71.053 28.922-16.524 53.006-25.783 76.291-24.934 23.227.846 45.655 11.862 59.627 28.383z"/>
                <path fill="#DFDFDF" fill-rule="nonzero" d="M91.011 109.596H95.446V194.084H91.011z" transform="rotate(-10.8 93.228 151.84)"/>
                <path fill="#000" fill-rule="nonzero" d="M84.38 104.88c-2.091 0-16.009-1.85-16.668-1.85-.658 0-2.268.417-2.268 1.494 0 3.643 11.708 6.868 23.598 6.868 11.891 0-4.662-6.512-4.662-6.512z"/>
                <circle cx="45.396" cy="190.276" r="45.396" stroke="#525252" stroke-linecap="round" stroke-linejoin="round" stroke-width="5.76"/>
                <circle cx="207.338" cy="190.276" r="45.396" stroke="#525252" stroke-linecap="round" stroke-linejoin="round" stroke-width="5.76"/>
                <path fill="#000" fill-rule="nonzero" d="M148.319 108.15H179.171V111.232H148.319z" transform="rotate(-19.54 163.745 109.69)"/>
                <path fill="#DFDFDF" fill-rule="nonzero" d="M142.742 146.168H228.61599999999999V150.15300000000002H142.742z" transform="rotate(61.3 185.68 148.16)"/>
                <path fill="#DFDFDF" fill-rule="nonzero" d="M88.337 143.958H184.74900000000002V146.701H88.337z"/>
                <path fill="#DFDFDF" fill-rule="nonzero" d="M95.168 171.058H192.804V177.628H95.168z" transform="rotate(-37.43 143.986 174.343)"/>
                <path fill="#DFDFDF" fill-rule="nonzero" d="M48.107 185.819c7.221 0 54.558 3.024 54.558 3.024-1.951 5.857-8.687 23.425-8.687 23.425-3.416-.976-44.406-20.009-44.406-20.009l-1.465-6.44z"/>
                <path fill="#DFDFDF" fill-rule="nonzero" d="M34.998 163.898H101.184V168.787H34.998z" transform="rotate(-43.53 68.091 166.343)"/>
                <circle cx="98.305" cy="202.246" r="12.521" fill="#DFDFDF" fill-rule="nonzero"/>
                <path fill="#000" fill-rule="nonzero" d="M96.149 167.88c-1.12.972-8.143 7.517-8.143 7.517l16.754 18.91 3.096-2.811-6.58-18.36-5.127-5.256z"/>
                <path fill="#465097" fill-rule="nonzero" d="M120.298 91.225c3.82 1.296 30.416 23.872 33.282 28.098-2.24 10.239-48.24 52.96-52.874 54.767-2.484-1.469-5.083-4.633-5.083-6.444 1.354-2.16 22.263-34.988 22.263-34.988S103.83 89.4 120.298 91.225z"/>
                <ellipse cx="156.461" cy="110.982" fill="#DE8E68" fill-rule="nonzero" rx="4.9" ry="5.785" transform="rotate(-8.65 156.461 110.982)"/>
                <ellipse cx="169.079" cy="107.746" fill="#DE8E68" fill-rule="nonzero" rx="4.536" ry="5.216" transform="rotate(-8.65 169.08 107.746)"/>
                <path fill="#5A65B7" fill-rule="nonzero" d="M89.662 70.932c-2.704 1.678-12.028 12.05-12.028 23.4 0 14.616 29.365 37.472 39.992 44.64-2.052 5.31-22.374 48.935-23.04 50.987 1.584 1.307 6.34 3.078 8.111 3.078 9.785-7.83 37.005-49.32 37.473-53.32.468-4-22.652-47.635-22.652-47.635l-27.856-21.15z"/>
                <path fill="#D37C59" fill-rule="nonzero" d="M145.285 56.172c.36 2.43 1.753 12.6 2.427 13.792.673 1.191 19.778 31.194 20.811 32.691-.155 1.293-2.376 3.41-3.924 3.15-1.962-1.393-20.246-24.804-20.246-24.804s-18.745-24.465.932-24.829z"/>
                <path fill="#FCC486" fill-rule="nonzero" d="M139.464 42.024c3.96-1.188 7.628 10.224 6.955 14.512-2.16 2.58-8.003 3.15-9.45 2.48-.367-2.221-1.587-15.768 2.495-16.992z"/>
                <path fill="#FED385" fill-rule="nonzero" d="M127.728 27.865c5.792 0 14.04 6.657 14.04 13.345 0 15.016-17.363 52.978-22.637 54.216-7.394 1.74-30.805-20.077-30.805-24.051.01-8.233 27.727-43.51 39.402-43.51z"/>
                <path fill="#D37C59" fill-rule="nonzero" d="M134.23 18.53c-.23.976-4.436 8.475-6.26 10.494.194.98 4.14 4.436 6.26 4.32.748-1.123 3.65-6.224 4.73-7.023 1.08-.8-1.408-7.531-4.73-7.79z"/>
                <ellipse cx="143.836" cy="16.077" fill="#DE8E68" fill-rule="nonzero" rx="13.097" ry="9.36" transform="rotate(-60 143.836 16.077)"/>
                <path fill="#764E2D" fill-rule="nonzero" d="M134.572 12.133c-.072-1.375 2.318-8.399 6.192-10.44 3.873-2.041 6.296-.637 8.996-.637 2.426 0 4.352-1.18 7.027-1.015 3.474.216 3.91 3.657 4.453 5.288.72 2.16 4.248 2.376 5.865 6.48.867 2.207-3.366 6.516-7.024 6.516-2.138 0-5.4-1.224-6.354-1.8.202-.84.36-1.69.475-2.545-1.292 0-9.291-1.602-9.943-1.566-.651.036-3.042 2.462-3.261 2.97-.742-.209-4.98-.46-6.426-3.25z"/>
                <circle cx="135.014" cy="14.585" r="3.056" fill="#DE8E68" fill-rule="nonzero"/>
                <path fill="#FED892" fill-rule="nonzero" d="M121.594 32.07c7.387-2.988 17.564 15.93 17.87 22.77-1.27 2.06-14.67 7.01-17.388 6.613-3.942-4.554-8.716-26.053-.482-29.383z"/>
                <path fill="#DE8E68" fill-rule="nonzero" d="M122.76 60.41c.98 2.634 5.062 14.76 6.3 17.97 1.238 3.212 19.678 27.36 22.518 29.697 3.355.932 4.698-.515 5.008-2.373-.67-1.86-14.307-31.557-15.336-34.398-1.03-2.84-3.669-14.925-3.72-16.527-2.318-1.498-13.474 1.292-14.77 5.63z"/>
                <path fill="#000" fill-rule="nonzero" d="M95.324 189.304c-.648 1.335-4.532 10.112-4.532 10.112l22.86 10.8 1.739-3.802-13.27-14.28-6.797-2.83z"/>
                <circle cx="45.396" cy="190.276" r="6.224" fill="#FD8369" fill-rule="nonzero"/>
                <circle cx="207.338" cy="190.276" r="6.224" fill="#FD8369" fill-rule="nonzero"/>
            </g>
        </g>
    </g>
</svg>
