<svg xmlns="http://www.w3.org/2000/svg" width="288" height="237" viewBox="0 0 288 237">
    <g fill="none" fill-rule="evenodd">
        <g>
            <g transform="translate(-43 -226) translate(43 226)">
                <path fill="#1A9483" fill-rule="nonzero" d="M222.565 151.16c-2.542-.87-10.861-11.875-10.861-24.936 0-15.173 16.05-43.893 17.576-54.124.97-6.508 5.353-63.836 38.628-63.836 18.146 0 19.659 35.477 19.659 51.345 0 37.067-53.897 68.64-53.897 87.894-3.61 1.48-7.321 2.703-11.105 3.657z"/>
                <path stroke="#1AB39D" stroke-linecap="round" stroke-width="1.218" d="M226.658 149.784c0-29.726 22.183-83.884 41.695-102.943"/>
                <path fill="#1A9483" fill-rule="nonzero" d="M98.56 209.317c-1.698-.506-6.318-6.395-6.318-13.983 0-7.308 2.053-17.966 2.053-27.853 0-5.499-2.053-7.448-2.053-13.992 0-10.429 9.884-13.605 13.35-13.605 5.1 0 7.828 4.364 7.828 6.675 0 3.225-.913 5.673-.913 9.242 0 6.976 2.436 7.85 2.18 13.86-.761 17.573-8.057 34.753-14.47 38.65l-1.656 1.006z"/>
                <path fill="#1A9483" fill-rule="nonzero" d="M98.56 209.317c2.083-1.797-9.579-58.617-19.694-68.671-11.005-10.929-20.052-16.714-23.039-20.301-5.298-6.361-8.672-30.35-31.994-30.35-6.169 0-20.706 5.1-23.321 26.686-.856 7.086-2.412 17.926 12.335 33.636 9.933 10.584 22.356 6.94 34.5 18.407 8.742 8.255 7.518 20.706 15.682 31.226 6.531 8.404 23.489 19.74 35.532 9.367z"/>
                <path stroke="#1AB39D" stroke-linecap="round" stroke-width="1.218" d="M95.698 210.672c0-14.26-44.983-78.62-62.982-87.824"/>
                <path stroke="#1AB39D" stroke-linecap="round" stroke-linejoin="round" stroke-width="1.218" d="M98.56 209.317c-.447-3.38-2.335-32.095 3.015-42.557"/>
                <path stroke="#6D6D6D" stroke-linecap="round" stroke-width=".914" d="M63.032 235.683c13.462-19.223 133.718-84.806 205.96-96.922"/>
                <rect width="36.519" height="67.897" x="134.19" y="34.387" fill="#6D6D6D" fill-rule="nonzero" rx="3.654"/>
                <path fill="#333" fill-rule="nonzero" d="M137.33 213.299L137.33 221.216 115.832 221.216 115.832 217.867 129.151 211.749zM183.964 205.708c1.087 2.436 3.654 8.748 3.654 8.748l-10.728 6.745h-9.72l-1.138-3.727 12.21-9.345 5.722-2.42z"/>
                <ellipse cx="146.806" cy="21.44" fill="#DE8E68" fill-rule="nonzero" rx="9.065" ry="11.431"/>
                <path fill="#DE8E68" fill-rule="nonzero" d="M140.204 1.023c-1.187-1.632-4.54-1.264-7.488.859-1.115.787-2.063 1.788-2.789 2.944-.096-.042-.2-.066-.304-.07-1.431 0-25.222 12.725-24.997 18.596.226 5.87 8.207 15.286 10.993 17.092 0 0 12.573-5.871 11.897-7.756-.676-1.885-7.917-7.917-9.187-9.11 1.492-.78 13.434-12.613 14.783-13.953 1.416-.303 2.75-.906 3.913-1.769 2.942-2.125 4.37-5.182 3.18-6.833z"/>
                <path fill="#FCC486" fill-rule="nonzero" d="M133.371 50.745c2.74-2.205-1.796-20.69-6.66-21.145-4.862-.453-13.343 8.71-13.001 11.31.34 2.6 12.737 15.377 19.661 9.835z"/>
                <path fill="#4F59A2" fill-rule="nonzero" d="M122.491 95.004c0 3.045 1.523 108.402 4.263 117.537 2.436 1.218 8.83 1.523 10.962.61 2.132-.914 15.734-116.478 15.734-121.551 0-5.073-30.959 3.404-30.959 3.404z"/>
                <path fill="#5A65B7" fill-rule="nonzero" d="M177.1 209.25c-2.908-4.568-40.772-93.263-43.741-115.132 3.109-2.409 26.245-6.248 28.117-1.876 1.873 4.373 24.36 112.48 23.59 113.883-.77 1.404-5.78 3.593-7.966 3.125z"/>
                <path fill="#FED385" fill-rule="nonzero" d="M146.934 36.236c19.64 0 18.422 54.353 14.159 57.702-4.263 3.35-37.606 3.502-39.737 1.066-2.132-2.436-7.168-58.768 25.578-58.768z"/>
                <path fill="#764E2D" fill-rule="nonzero" d="M161.224 17.557c0-2.317-2.214-3.988-2.214-5.273 0-1.285.758-3.587-.938-5.235-2.061-2-5.347-1.166-8.288-1.166-2.765 0-4.29-3.213-8.063-3.213-2.516 0-2.196 3.265-3.137 4.075-.697.609-6.132 1.778-6.132 4.263 0 2.777.073 6.504 5.84 6.504.384-1.334 1.827-4.263 3.471-5.566.847.365 5.481 2.277 6.63 2.615 1.147.338 2.825 5.253 4.603 5.847 1.778.593 1.891 3.867 3.191 3.727 1.3-.14 5.037-.688 5.037-6.578z"/>
                <circle cx="154.61" cy="22.341" r="2.396" fill="#DE8E68" fill-rule="nonzero"/>
                <path fill="#DE8E68" fill-rule="nonzero" d="M151.337 40.499c-.384 1.324-8.438-.284-8.283-1.782l1.377-13.306 9.704 2.088s-2.409 11.681-2.798 13z"/>
                <path stroke="#333" stroke-linecap="round" stroke-width="2.132" d="M206.195 47.636L172.137 216.472"/>
                <path fill="#DE8E68" fill-rule="nonzero" d="M200.733 94.225c-.908-.918-2.079-1.53-3.35-1.751-4.062-6.556-17.865-26.763-23.952-34.104-4.388 3.151-9.744 8.663-9.744 8.663 2.238 2.509 19.001 22.34 27.92 30.118-.01 1.646.649 3.225 1.827 4.375 2.256 2.26 5.721 2.455 7.737.442s1.818-5.484-.438-7.743z"/>
                <path fill="#FED892" fill-rule="nonzero" d="M154.647 45.142c7.877-5.855 20.864 8.304 20.65 12.028-.212 3.724-10.194 11.982-13.607 11.991-4.169.006-13.749-19.034-7.043-24.019z"/>
            </g>
        </g>
    </g>
</svg>
