<svg xmlns="http://www.w3.org/2000/svg" xmlns:xlink="http://www.w3.org/1999/xlink" width="24" height="21" viewBox="0 0 24 21">
    <defs>
        <linearGradient id="qili5zbiyb" x1="96.509%" x2="0%" y1="85.389%" y2="18.263%">
            <stop offset="0%" stop-color="#72E300"/>
            <stop offset="100%" stop-color="#F5B600"/>
        </linearGradient>
        <path id="l2im9z9u6a" d="M105.324 72.948l.85-.408c.614-.265.826-.601.826-1.25 0-1.804-2.242-4.472-3.398-5.554-4.862-4.591-12.319-1.923-14.16-6.971-.023-.097-.07-.145-.07-.217 0-.192.165-.336.306-.336.19 0 .284.096.402.216 3.728 3.798 8.873.577 13.593 5.097.33.312.802.168.826-.24.047-.386.07-.866.07-1.371 0-5.505-3.823-7.861-9.298-7.861-1.722 0-3.469.216-5.097.216-2.336 0-4.413-.433-5.829-2.02-.377-.408-1.085-.312-1.133.265-.118 1.13-.212 2.236-.212 3.318 0 8.197 5.333 14.544 12.224 14.544 3.02 0 5.83-1.322 7.056-3.51 1.086 1.443 1.629 3.173 2.502 5.866.094.24.354.336.542.216z"/>
    </defs>
    <g fill="none" fill-rule="evenodd">
        <g fill-rule="nonzero">
            <g>
                <g transform="translate(-625 -262) translate(469 148) translate(73 62)">
                    <use fill="#000" xlink:href="#l2im9z9u6a"/>
                    <use fill="url(#qili5zbiyb)" xlink:href="#l2im9z9u6a"/>
                </g>
            </g>
        </g>
    </g>
</svg>
